<?xml version="1.0" encoding="utf-8"?>
<!-- Generator: Adobe Illustrator 27.9.0, SVG Export Plug-In . SVG Version: 6.00 Build 0)  -->
<svg version="1.1" id="Layer_1" xmlns="http://www.w3.org/2000/svg" xmlns:xlink="http://www.w3.org/1999/xlink" x="0px" y="0px"
	 viewBox="0 0 3921.4 1581.1" style="enable-background:new 0 0 3921.4 1581.1;" xml:space="preserve">
<style type="text/css">
	.st0{fill:#E76F51;}
	.st1{fill:#0B315E;}
	.st2{fill:#FFFFFF;}
	.st3{fill:#AF5443;}
</style>
<path class="st0" d="M919.1,235.7c14.4,0.7,28.4,1.5,41.7,2.4c26.9,1.8,22.2,23.7,16.2,41.6l-34.4,101.5l25,1.6
	c21.1,1.4,41.1-41.1,75.2-92.2c34.1-51.1,72.8-46.9,72.8-46.9l60.6,3.9c85.1,5.5,88.8-51.1,3.7-56.7l-60.6-3.9
	c0,0-38.9-0.8-66.1-55.9c-27.2-55.1-41.5-99.8-62.6-101.2l-25-1.6l21,105.1c3.7,18.4,5.5,40.9-21.4,39.1
	c-12.1-0.8-25.2-1.6-39.1-2.3"/>
<path class="st1" d="M926,170.2c-279.6-15-905.7-18-905.7,163.5l0,0c0,228.7,1042.1,145.6,1339.2,211.7c25.6,5.7,28,41.4,3.4,50.5
	C1029.4,719.2,134.4,683.8,59.1,553.3c71,248.1,1477.8,268,1477.8,23.6c0-230.1-1046.9-147.6-1340.8-212.4
	c-25.2-5.6-28.2-40.4-4.3-50.1c193.6-79.1,516.2-88.7,727.3-78.5"/>
<g>
	<path class="st1" d="M1888.8,397.4l-4,119c0,41,3.4,75.5,10.2,103.5c6.8,28,19.6,47.3,38.2,58c-23,14.3-46.3,21.5-70,21.5
		c-41.7,0-67.3-33.7-77-101h-102c-6.3,21.7-9.5,38.2-9.5,49.8s1.3,20.8,4,27.8c-24.7,15.7-46.7,23.5-66,23.5
		c-29.7,0-44.5-18-44.5-54c0-18,5.6-40.7,16.8-68c11.2-27.3,26-58.7,44.5-94c18.5-35.3,30.2-58.7,35.2-70c-3.7-18-7.8-35.7-12.5-53
		c17.3-12,34.1-21.1,50.2-27.2c16.2-6.2,33.7-9.2,52.5-9.2c18.8,0,31.9,4.2,39.2,12.5c19-8.3,34.7-12.5,47-12.5
		c12.3,0,21.5,2,27.5,6s10.3,9.8,13,17.5C1886.5,360.7,1888.8,377.4,1888.8,397.4z M1788.3,408.9h-16c-30,58-52.3,103.7-67,137h77.5
		C1782.8,509.5,1784.7,463.9,1788.3,408.9z"/>
	<path class="st1" d="M1979.8,680.6c-9.3-12.5-14-31.2-14-56c0-24.8,10.5-95.2,31.5-211.2l-26.5-53.5c37.7-24.3,72-36.5,103-36.5
		c25.7,0,38.5,15.7,38.5,47c0,9.3-6.4,48.3-19.2,117c-12.8,68.7-19.2,112.3-19.2,131h54c25.3-3.7,50.8-10.2,76.5-19.5
		c2,6,3,14.2,3,24.5c0,19.7-5.8,37.2-17.2,52.5s-27.4,23-47.8,23c-13.7,0-37.3-3.7-71-11c-14,7.7-28.8,11.5-44.5,11.5
		C2004.8,699.4,1989.2,693.1,1979.8,680.6z"/>
	<path class="st1" d="M2527.8,397.4l-4,119c0,41,3.4,75.5,10.2,103.5c6.8,28,19.6,47.3,38.2,58c-23,14.3-46.3,21.5-70,21.5
		c-41.7,0-67.3-33.7-77-101h-102c-6.3,21.7-9.5,38.2-9.5,49.8s1.3,20.8,4,27.8c-24.7,15.7-46.7,23.5-66,23.5
		c-29.7,0-44.5-18-44.5-54c0-18,5.6-40.7,16.8-68c11.2-27.3,26-58.7,44.5-94c18.5-35.3,30.2-58.7,35.2-70c-3.7-18-7.8-35.7-12.5-53
		c17.3-12,34.1-21.1,50.2-27.2c16.2-6.2,33.7-9.2,52.5-9.2c18.8,0,31.9,4.2,39.2,12.5c19-8.3,34.7-12.5,47-12.5
		c12.3,0,21.5,2,27.5,6s10.3,9.8,13,17.5C2525.5,360.7,2527.8,377.4,2527.8,397.4z M2427.3,408.9h-16c-30,58-52.3,103.7-67,137h77.5
		C2421.8,509.5,2423.7,463.9,2427.3,408.9z"/>
	<path class="st1" d="M2990.3,699.4c-21.7,0-37.2-6.2-46.5-18.8c-9.3-12.5-14-30.9-14-55.2c0-24.3,7.8-80.3,23.5-168h-8
		c-20.3,26.7-37.2,58.5-50.5,95.5c-13.3,37-21.5,70.3-24.5,100c-16.3,15.3-35.2,23-56.5,23c-8.7,0-16.2-3.1-22.8-9.2
		c-6.5-6.2-12.9-16.9-19.2-32.2c-12.3-31-21.2-90-26.5-177h-8c-16.3,71.7-24.5,122.2-24.5,151.5c0,29.3,5,52,15,68
		c-20,15-40.8,22.5-62.5,22.5c-21.7,0-37.2-6.2-46.5-18.8c-9.3-12.5-14-31.2-14-56c0-24.8,10.5-95.2,31.5-211.2l-26.5-53.5
		c37.7-24.3,72-36.5,103-36.5c13.7,0,25.2,1.4,34.8,4.2c9.5,2.8,18.7,8.2,27.5,16.2c8.8,8,16.1,19.2,21.8,33.5
		c13,32.3,22.3,79.5,28,141.5h6c17.3-51,41.3-94.8,72-131.5c16.7-19.7,36.6-35.2,59.8-46.5c23.2-11.3,48.2-17,75.2-17
		c25.7,0,38.5,15.5,38.5,46.5c0,10.3-6.4,48.8-19.2,115.2c-12.8,66.5-19.2,106.1-19.2,118.8c0,32.3,5,56.5,15,72.5
		C3032.8,691.9,3012,699.4,2990.3,699.4z"/>
</g>
<g>
	<path class="st1" d="M1302.4,1032.6c0-46.4,12-81.3,36.1-104.8c24.1-23.5,52.8-35.2,86.3-35.2s79.2,5.7,137,17.2
		c57.8,11.5,101.4,17.5,130.6,18c48.7-9.2,95.1-20.3,139.2-33.5c4.6,14.9,6.9,33.5,6.9,55.8c0,46.4-13.3,81.3-39.9,104.8
		c-26.6,23.5-60.6,35.2-101.8,35.2c-10.3,0-45-3.5-62.1-4.6c-31.5,165.5-48.8,182.5-51.4,286.9c-1.4,55.5,33.6,90.5,50.8,118
		c-34.4,25.8-70.2,38.7-107.4,38.7c-37.2,0-63.9-10.7-79.9-32.2c-16-21.5-24.1-53.5-24.1-96.2c0-42.7,60.3-170.1,93.6-355.1
		c-64.7,8.6-162.9,32-207,42.8C1304.7,1074.1,1302.4,1055.5,1302.4,1032.6z"/>
</g>
<g>
	<path class="st1" d="M1747.4,1354.5c0-13.3,3.4-39.2,10.2-77.5c6.8-38.3,13.9-73.3,21.2-105l-26-40c41.7-18.7,70.9-28,87.8-28
		c16.8,0,25.2,10.7,25.2,32c0,11.7-5.5,36-16.5,73l5,2.5c24-71.7,53.8-107.5,89.5-107.5c16.3,0,28.8,5,37.5,15
		c8.7,10,13,21.2,13,33.5c0,18.3-6.8,34-20.5,47c-13.7,13-34.2,19.5-61.5,19.5c-41.3,0-62,42.5-62,127.5c0,20.7,3.5,35.8,10.5,45.5
		c-20.7,16.3-39.7,24.5-57,24.5C1766.2,1416.5,1747.4,1395.9,1747.4,1354.5z"/>
	<path class="st1" d="M2076.2,1416.5c-20.8,0-35.9-5.2-45.3-15.5c-9.3-10.3-14-26.1-14-47.2c0-21.2,10.7-77.9,32-170.2l-28-42
		c41.7-25,74.5-37.5,98.5-37.5c13.7,0,23.3,2.9,29,8.8c5.7,5.8,8.5,15.2,8.5,28.2c0,5-6.2,34.3-18.5,88c-12.3,53.7-18.5,92-18.5,115
		s5.2,39,15.5,48C2116.7,1408.4,2097,1416.5,2076.2,1416.5z M2173.4,1024.8c0,12.8-6.7,23.8-20,33c-13.3,9.2-28.5,13.8-45.5,13.8
		s-30.4-3.3-40.2-10c-9.8-6.7-14.8-15.7-14.8-27c0-15.3,7.2-27.3,21.5-36c14.3-8.7,29.5-13,45.5-13s28.9,3.3,38.8,10
		C2168.5,1002.2,2173.4,1012,2173.4,1024.8z"/>
	<path class="st1" d="M2261.4,1503.5c-20.7,0-35.1-5.1-43.2-15.2c-8.2-10.2-12.2-24.8-12.2-44c0-19.2,4.1-57.8,12.2-115.8
		c8.2-58,16.1-107.5,23.8-148.5l-28-40c20.7-12,38.5-21.1,53.5-27.2c15-6.2,29.8-9.2,44.5-9.2c24,0,36,15.8,36,47.5
		c0,4.3-0.7,13.2-2,26.5l5,2.5c9.7-24,23.7-42.8,42-56.2c18.3-13.5,39.9-20.2,64.8-20.2c24.8,0,44.6,11.2,59.2,33.8
		c14.7,22.5,22,50.4,22,83.8c0,44.7-15.7,85.3-47,122c-15.3,18-35.8,32.6-61.5,43.8c-25.7,11.2-54.3,16.8-86,16.8
		c-9.7,0-22.3-0.8-38-2.5c-1,11.7-1.5,22.5-1.5,32.5c0,21.3,5.2,36.5,15.5,45.5C2301.7,1495.4,2282.1,1503.5,2261.4,1503.5z
		 M2326.9,1296.5l-11.5,58c40.3-1,72.6-14.2,96.8-39.8c24.2-25.5,36.2-53.4,36.2-83.8c0-15.7-3.1-28.2-9.2-37.8
		c-6.2-9.5-15.1-14.2-26.8-14.2C2371.1,1179,2342.6,1218.2,2326.9,1296.5z"/>
	<path class="st1" d="M2644.4,1503.5c-20.7,0-35.1-5.1-43.2-15.2c-8.2-10.2-12.2-24.8-12.2-44c0-19.2,4.1-57.8,12.2-115.8
		c8.2-58,16.1-107.5,23.8-148.5l-28-40c20.7-12,38.5-21.1,53.5-27.2c15-6.2,29.8-9.2,44.5-9.2c24,0,36,15.8,36,47.5
		c0,4.3-0.7,13.2-2,26.5l5,2.5c9.7-24,23.7-42.8,42-56.2c18.3-13.5,39.9-20.2,64.8-20.2c24.8,0,44.6,11.2,59.2,33.8
		c14.7,22.5,22,50.4,22,83.8c0,44.7-15.7,85.3-47,122c-15.3,18-35.8,32.6-61.5,43.8c-25.7,11.2-54.3,16.8-86,16.8
		c-9.7,0-22.3-0.8-38-2.5c-1,11.7-1.5,22.5-1.5,32.5c0,21.3,5.2,36.5,15.5,45.5C2684.7,1495.4,2665.1,1503.5,2644.4,1503.5z
		 M2709.9,1296.5l-11.5,58c40.3-1,72.6-14.2,96.8-39.8c24.2-25.5,36.2-53.4,36.2-83.8c0-15.7-3.1-28.2-9.2-37.8
		c-6.2-9.5-15.1-14.2-26.8-14.2C2754.1,1179,2725.6,1218.2,2709.9,1296.5z"/>
	<path class="st1" d="M3109.9,1416.5c-45.7,0-80.9-11.8-105.8-35.5c-24.8-23.7-37.2-55.7-37.2-96c0-53.7,18.4-97.2,55.2-130.8
		c36.8-33.5,83.1-50.2,138.8-50.2c31,0,54.5,6.9,70.5,20.8c16,13.8,24,32.1,24,54.8c0,31-15.1,56.8-45.2,77.2
		c-30.2,20.5-76.8,30.9-139.8,31.2c1,21.3,5.8,38.1,14.5,50.2c8.7,12.2,19.5,18.2,32.5,18.2s24.2-4.3,33.8-13
		c9.5-8.7,14.2-22.8,14.2-42.5c48.7,0,73,11.5,73,34.5c0,19.7-12,38.1-36,55.2S3147.6,1416.5,3109.9,1416.5z M3152.4,1162.5
		c-17,0-32.6,8.5-46.8,25.5c-14.2,17-24.4,37-30.8,60c33.3-2.7,58.4-10.2,75.2-22.8c16.8-12.5,25.2-25.8,25.2-39.8
		c0-6.7-2.1-12.2-6.2-16.5C3165,1164.7,3159.4,1162.5,3152.4,1162.5z"/>
	<path class="st1" d="M3300.4,1354.5c0-13.3,3.4-39.2,10.2-77.5c6.8-38.3,13.9-73.3,21.2-105l-26-40c41.7-18.7,70.9-28,87.8-28
		c16.8,0,25.2,10.7,25.2,32c0,11.7-5.5,36-16.5,73l5,2.5c24-71.7,53.8-107.5,89.5-107.5c16.3,0,28.8,5,37.5,15
		c8.7,10,13,21.2,13,33.5c0,18.3-6.8,34-20.5,47c-13.7,13-34.2,19.5-61.5,19.5c-41.3,0-62,42.5-62,127.5c0,20.7,3.5,35.8,10.5,45.5
		c-20.7,16.3-39.7,24.5-57,24.5C3319.2,1416.5,3300.4,1395.9,3300.4,1354.5z"/>
	<path class="st1" d="M3724.4,1170.5c-12.3,3.7-22.2,8.9-29.5,15.8c-7.3,6.8-13.8,16.6-19.5,29.2c56.3,8.3,96,20.3,119,36
		c23,15.7,34.5,38,34.5,67c0,18.3-5.2,34.2-15.5,47.8c-10.3,13.5-23.3,23.8-39,30.8c-30.7,13-60.8,19.5-90.5,19.5
		c-84.3,0-126.5-18.2-126.5-54.5c0-18.3,8.2-36.7,24.5-55c8.3,11.7,20.9,21.7,37.8,30c16.8,8.3,33.2,12.5,49.2,12.5
		c27.7,0,44.3-12.2,50-36.5c-50.7-6-87.3-17.3-110-34c-22.7-16.7-34-40.2-34-70.5c0-24,7.9-44.2,23.8-60.5
		c15.8-16.3,35.5-27.8,59-34.2s50-9.8,79.5-9.8s53.8,5.6,73,16.8c19.2,11.2,28.8,24.8,28.8,40.8s-5.6,28.3-16.8,37
		c-11.2,8.7-23.3,13-36.5,13c-13.2,0-25.2-3.5-36-10.5C3738.8,1194,3730.4,1183.9,3724.4,1170.5z"/>
</g>
<g>
	<path class="st2" d="M877.8,1187.8c188.1-153.8,443.1-282.8,872.3-294.2c17.3-0.5,18.8-26.2,1.8-29.7
		c-103-21.4-156.9-32.8-171-35.8c-2.5-0.5-5-0.4-7.5,0.3l-744.2,225.7c-8.1,2.5-12.6,11.1-9.9,19.1l35.6,106.9
		C858.1,1189.7,870,1194.2,877.8,1187.8z"/>
	<g>
		<path class="st2" d="M896.7,1052.5l-182.9-7.7l-23.3,11l134.5,29.1c0.4,0.4,10,1,0,0c31.9,1.5,166.8-4.9,239-27.2
			c72.2-22.2,555.7-190.4,614.9-221c59.1-30.7,105.4-55.1,93.1-79.5c0,0-5.5-17.7-51-8.1c-33.4-27.1-138.3,9.6-202.2,29.8
			c-63.9,20.2-495.2,185.2-495.2,185.2s-91.1,5.9-107.2,3.9c-16.1-2-163.4-101.4-175.5-100.1c-12.1,1.3-36.3,14.8-36.3,14.8
			l110.3,166.3"/>
		<polyline class="st2" points="1306.3,908.9 1026.9,879.5 994.5,896.4 1189.2,951.7 		"/>
	</g>
	<polyline class="st0" points="1496.8,812.1 1138.2,797.5 1104.2,810.9 1292,886.3 	"/>
	<g>
		<path class="st0" d="M915.9,980.7C916.2,981.2,925.7,982.8,915.9,980.7L915.9,980.7z"/>
		<path class="st0" d="M1899.9,760.7c0,0-3.7-18.2-49.7-13.4l-33.5,10.8l0.3-13.6l18.8-5.9c-41.7-15.7-132.3,5.4-190,17.2
			c-65.6,13.4-511.8,132.5-511.8,132.5s-91.2-3.6-107-7.3c-15.8-3.7-152-117.9-164.1-117.9c-12.2,0-37.7,10.9-37.7,10.9l92.2,176.8
			l-100-14.8l-24.3,8.5l130.7,43c31.6,4.9,166.4,12.5,240.6-2.1C1238.6,971,1737,854.3,1799,830
			C1861,805.7,1909.6,786.2,1899.9,760.7z"/>
	</g>
</g>
<g>
	<path class="st3" d="M328.3,934.4c-7,9.7-16.6,20.7-28.8,32.8c-9,9-19.6,17.8-31.8,26.4c-8,5.6-15.9,10.4-23.6,14.4
		c-7.7,4-13.6,6-17.5,6c-2,0-3.8-0.6-5.2-1.6c-1.5-1.1-2.2-2.8-2.2-5c0-3.2,1.2-6,3.6-8.2s5.6-4.1,9.6-5.5c2-0.8,4.8-1.6,8.4-2.4
		c4.6-0.8,8.7-2.1,12.3-3.9c6.8-3.4,14.7-8.6,23.9-15.8c9.1-7.1,16.2-13.4,21.4-19c8.6-9.2,15.2-17.3,19.7-24.5
		c4.5-7.1,6.8-14.4,6.8-22c0-4.2-2-7.2-6-9.1c-4-1.9-8.9-2.9-14.7-2.9c-14.8,0-28.3,2.6-40.5,7.8c-5.4,2.4-9.1,4.1-11.1,5.1
		c-7.2,3.2-13.1,5.7-17.7,7.5c-5.2,2-10.2,3.8-15,5.2c-4.8,1.5-8,2.5-9.6,3.1l0.6,11.4c0,3,0.2,7.8,0.4,14.4
		c0.3,6.6,0.5,12.8,0.5,18.6c0,13.8-1,25-3,33.6c-0.8,2.8-1.7,4.8-2.7,6c-1,1.2-2.9,1.8-5.7,1.8c-1.8,0-3.5-0.6-5.1-1.8
		c-1.6-1.2-2.4-2.7-2.4-4.5c0-0.6,0.9-4,2.7-10.2c1.8-6.2,2.7-11.7,2.7-16.5c0-15.6-0.7-35.5-2.1-59.7l-0.9-13.8
		c-1.2-13.2-1.8-23.6-1.8-31.2c0-5.8,0.4-13.1,1.2-22c0.8-8.9,1.4-14.7,1.8-17.6c-7.6,2-17.3,5.6-29.1,10.8
		c-3.4,1.4-7.8,3.9-13.2,7.5c-5,3.2-8.4,4.8-10.2,4.8c-1.6,0-3-0.7-4.2-2.1c-1.2-1.4-1.8-3.1-1.8-5.1c0-3.8,6.7-8.7,20.1-14.7
		c13.4-6,28-11.3,43.8-15.9c14.2-4.2,26.8-7.3,37.8-9.3c11-2,22.3-3,33.9-3c10.6,0,19.4,2.1,26.6,6.1c7.1,4.1,10.7,9.9,10.7,17.2
		c0,17.6-9.6,35.8-28.8,54.6c8.6-1.2,16.4-1.8,23.4-1.8c9.2,0,17.1,1.9,23.7,5.7c6.6,3.8,9.9,10.2,9.9,19.2
		C338.8,915,335.3,924.7,328.3,934.4z M289.6,820.7c-4.6-2.5-10.8-3.8-18.6-3.8c-8.2,0-18.5,1-30.9,2.9c-12.4,1.9-22,4-28.8,6.1
		c-3.4,13.6-5.1,25-5.1,34.2c0,13,0.6,29.4,1.8,49.2c2-0.2,5.2-1,9.8-2.4c4.5-1.4,8.6-2.9,12.5-4.5c19-8,34.8-18.4,47.4-31.2
		c12.6-12.8,18.9-26,18.9-39.6C296.5,826.8,294.2,823.2,289.6,820.7z"/>
	<path class="st3" d="M462.7,963.3c-5.8,10.2-14,19-24.6,26.2c-10.6,7.3-22.7,11-36.3,11c-13.4,0-23.3-3.7-29.7-11.1
		c-6.4-7.4-9.6-16.6-9.6-27.6c0-9.6,1.7-21.5,5.2-35.7c3.5-14.2,8.4-26.9,14.9-38.1c0.4-0.8,2-3.8,4.9-8.9c2.9-5.1,6.2-9,9.8-11.7
		c3.6-2.7,7.4-4,11.4-4c1.8,0,3.4,0.5,4.9,1.4s2.2,2.1,2.2,3.4c0,0.4-0.6,1.4-1.6,2.9c-1.1,1.5-2,2.7-2.5,3.5
		c-6.8,8.2-12.3,16.3-16.5,24.3c-5.6,10.2-10,20.3-13.1,30.3c-3.1,10-4.6,20.9-4.6,32.7c0,15.8,9.6,23.7,28.8,23.7
		c9,0,17.3-2.6,25.1-7.8c7.7-5.2,13.8-11.5,18.4-19c4.6-7.5,6.9-14.3,6.9-20.5c0-7-2.3-13.1-6.9-18.3c-4.6-5.2-10.9-10.7-18.9-16.5
		c-5.2-3.8-9-6.9-11.4-9.3s-3.6-4.4-3.6-6c0-2.4,1.7-4.4,5.1-5.9c3.4-1.5,7.4-2.2,12-2.2c2.6,0,4.3,0.1,5.1,0.5
		c0.8,0.3,1.2,0.9,1.2,1.6c0,0.4-0.4,1-1,1.9c-0.7,0.9-1,1.7-1,2.2c0,0.6,2,2.6,6,6c8,6.6,14.7,13.3,20.1,20.1
		c5.4,6.8,8.1,14.8,8.1,24C471.4,944.1,468.5,953.1,462.7,963.3z"/>
	<path class="st3" d="M591.1,963.3c-5.8,10.2-14,19-24.6,26.2c-10.6,7.3-22.7,11-36.3,11c-13.4,0-23.3-3.7-29.7-11.1
		c-6.4-7.4-9.6-16.6-9.6-27.6c0-9.6,1.7-21.5,5.2-35.7c3.5-14.2,8.4-26.9,14.9-38.1c0.4-0.8,2-3.8,4.9-8.9c2.9-5.1,6.2-9,9.8-11.7
		c3.6-2.7,7.4-4,11.4-4c1.8,0,3.4,0.5,4.9,1.4s2.2,2.1,2.2,3.4c0,0.4-0.6,1.4-1.6,2.9c-1.1,1.5-2,2.7-2.5,3.5
		c-6.8,8.2-12.3,16.3-16.5,24.3c-5.6,10.2-10,20.3-13.1,30.3c-3.1,10-4.6,20.9-4.6,32.7c0,15.8,9.6,23.7,28.8,23.7
		c9,0,17.3-2.6,25.1-7.8c7.7-5.2,13.8-11.5,18.4-19c4.6-7.5,6.9-14.3,6.9-20.5c0-7-2.3-13.1-6.9-18.3c-4.6-5.2-10.9-10.7-18.9-16.5
		c-5.2-3.8-9-6.9-11.4-9.3s-3.6-4.4-3.6-6c0-2.4,1.7-4.4,5.1-5.9c3.4-1.5,7.4-2.2,12-2.2c2.6,0,4.3,0.1,5.1,0.5
		c0.8,0.3,1.2,0.9,1.2,1.6c0,0.4-0.4,1-1,1.9c-0.7,0.9-1,1.7-1,2.2c0,0.6,2,2.6,6,6c8,6.6,14.7,13.3,20.1,20.1
		c5.4,6.8,8.1,14.8,8.1,24C599.8,944.1,596.9,953.1,591.1,963.3z"/>
	<path class="st3" d="M756.5,878c-2.7,3.1-5.2,4.7-7.6,4.7c-1.6,0-3.4-0.8-5.4-2.6c-2-1.7-3.4-2.5-4.2-2.5c-5.4,0-14,3.7-25.8,11.1
		c-11.8,7.4-23.9,16.1-36.3,26.1c-12.4,10-21.9,18.5-28.5,25.5l0.3,5.4c15.2,7,32.1,14.5,50.7,22.5c18.6,8,31.5,12.7,38.7,14.1
		c2.8,0.4,5.6,0.7,8.4,0.9c2.8,0.2,4.8,0.3,6,0.3c1.8,0,3.3,0.1,4.5,0.3c1.2,0.2,1.8,0.6,1.8,1.2c0,2.4-1.9,4.8-5.6,7.2
		c-3.7,2.4-9.3,3.6-16.6,3.6c-6.6,0-15.6-2.4-26.9-7.3c-11.3-4.9-24.7-11.3-40-19.4l-18.9-9.3c2.6,25.4,3.9,39.4,3.9,42
		c0,2.2-1.1,4-3.3,5.4c-2.2,1.4-4.6,2.1-7.2,2.1c-1.6,0-2.9-2.4-3.9-7.2c-1-4.8-2.2-14.3-3.6-28.5l-2.1-18.3c-2.4-1-4.5-2.4-6.3-4.3
		c-1.8-1.9-2.7-3.6-2.7-5.2c0-2.4,2-5.2,6-8.4c-0.2-10.8-0.8-26.2-1.6-46.2c-0.9-20-1.6-34.6-2-43.8l-1.5-41.7
		c0-5.6,0.7-10.4,2.1-14.4c1.4-4,4.5-6,9.3-6c1.8,0,3,0.4,3.6,1c0.6,0.7,0.9,2.1,0.9,4c0,9.2,0.6,30.6,2,64.1
		c1.3,33.5,2.3,57.4,3.1,71.5c44.6-42.4,77.2-63.6,97.8-63.6c4.2,0,7.7,0.8,10.7,2.2c2.9,1.5,4.3,3.1,4.3,4.7
		C760.6,871.9,759.2,874.9,756.5,878z"/>
	<path class="st3" d="M795.7,1005.9c-3.8,0-7.3-2.2-10.3-6.5c-3.1-4.3-5.6-9.1-7.5-14.4c-1.9-5.3-2.9-8.7-2.9-10.4
		c0-2.2,1-4.3,3.1-6.3c2.1-2,4.2-3,6.5-3c1.4,0,2.5,0.6,3.3,1.6c0.8,1.1,2,3,3.6,5.6c2,3.6,3.7,5.9,5.1,6.9c2.6,2,4.7,5.7,6.4,11.1
		c1.7,5.4,2.6,9,2.6,10.8C805.6,1004.4,802.3,1005.9,795.7,1005.9z"/>
	<path class="st3" d="M300.7,1167.3c-5.6,0.6-18.9,3.1-39.8,7.6c-20.9,4.5-36.3,8.1-46.1,10.7c0,4.4,0,13.6,0.2,27.8
		c0.1,14.1,0.3,26.1,0.8,35.8c0.2,3.8,0.6,8,1.3,12.6c0.7,4.6,1.1,7.9,1.4,9.9c1.2,7.2,1.8,11.5,1.8,12.9c0,2.2-1,5.4-3.2,9.8
		c-2.1,4.3-3.9,6.4-5.2,6.4c-1.4,0-2.7-0.7-3.9-2.1c-1.2-1.4-2-3.1-2.4-5.1c-2-9-3.4-23.6-4.2-43.8c-1-24.6-1.5-43.8-1.5-57.6
		c-1.2,0.2-3.1,0.6-5.8,1.1c-2.7,0.5-5.1,0.9-7,1c-2,0-4.1-0.5-6.3-1.5c-2.2-1-3.3-2.2-3.3-3.6c0-1.6,0.5-2.8,1.7-3.6
		c1.1-0.8,2.3-1.4,3.8-2c1.4-0.5,2.4-0.8,3-1c7.2-3,12-4.9,14.4-5.7l-2.4-66.9c-14.8,2.4-25.7,3.6-32.7,3.6
		c-7.8,0-13.2-1.9-16.2-5.7c-2.8-3.8-4.2-7.3-4.2-10.5c0-1.8,1.3-2.7,3.9-2.7c0.4,0,2.7,0.7,7,2.1c4.3,1.4,8,2.1,11.2,2.1
		c6.4,0,16.6-1,30.6-3c0-0.4,0.1-2,0.3-4.6c0.2-2.7,1.1-5.1,2.7-7.4c1-1.8,1.9-3,2.7-3.6c0.8-0.6,1.7-0.9,2.7-0.9
		c3.8,0,5.7,4.2,5.7,12.6c2.8-0.6,9.1-1.8,19-3.6c9.9-1.8,21.2-3.5,34.1-5.1c12.8-1.6,23.9-2.4,33.3-2.4c7.6,0,11.4,1.5,11.4,4.5
		c0,2.4-0.9,5.5-2.5,9.3c-1.7,3.8-3.7,5.7-5.9,5.7c-0.8,0-1.6-0.5-2.4-1.4c-0.8-0.9-1.4-1.4-1.8-1.6c-1.8-0.8-4.4-1.2-7.8-1.2
		c-6.2,0-18.6,1.3-37,3.9c-18.5,2.6-31.9,4.8-40.1,6.6l2.1,65.1c10.8-2.8,27.4-6.6,49.8-11.4c22.4-4.8,35.5-7.2,39.3-7.2
		c1.6,0,2.7,0.3,3.3,0.8c0.6,0.5,0.9,1.6,0.9,3.2C307.3,1163.3,305.1,1166.7,300.7,1167.3z"/>
	<path class="st3" d="M362.8,1259.1c-2.6,1.2-5.5,1.8-8.7,1.8c-2.4,0-4.7-2.9-6.8-8.5c-2.1-5.7-3.2-14.3-3.2-26
		c0.2-22.6,0.5-49.9,1.1-81.9c0.5-32,0.9-56.1,1.3-72.3c0.2-5.8,1.2-11.2,3.2-16.2c1.9-5,5.2-7.5,10-7.5c1.6,0,2.6,0.9,3.2,2.5
		c0.5,1.7,0.8,5,0.8,9.8c0,0.2-0.1,0.9-0.2,2c-0.1,1.1-0.1,3.1-0.1,5.9c-3.6,52.6-5.4,103.9-5.4,153.9c0,6.4,1.4,13.2,4.3,20.4
		c2.9,7.2,4.3,11,4.3,11.4C366.7,1256.3,365.4,1257.9,362.8,1259.1z"/>
	<path class="st3" d="M493.6,1159.8c-2.4,17.6-3.7,27.5-3.9,29.7c-2.6,24.6-4.5,43.4-5.5,56.2c-1.1,12.9-1.7,24.5-1.7,34.9
		c0,8.6,0.6,15.4,2,20.4c1.3,5,2.7,8.9,4.2,11.8c1.5,2.9,2.2,4.7,2.2,5.2c0,1.8-1.6,3.4-4.8,4.8c-3.2,1.4-6.5,2.1-9.9,2.1
		c-2.6,0-4.6-3.5-6.1-10.5c-1.5-7-2.2-17.9-2.2-32.7c0-11.2,1.1-26.3,3.3-45.3l4.5-41.4c-5.4,10.4-12.1,20.4-19.9,29.9
		c-7.9,9.5-16.1,14.2-24.5,14.2c-7.8,0-14.8-6.8-21-20.4c-6.2-13.6-11.1-29-14.5-46.2c-3.5-17.2-5.2-29.8-5.2-37.8
		c0-5,1.5-7.5,4.5-7.5c4.4,0,7.2,4.1,8.4,12.3c7.6,55.6,18.2,83.4,31.8,83.4c5.4,0,10.1-2.1,14.2-6.5c4.1-4.3,8.9-11,14.6-20
		c2.6-4.2,5.4-9.8,8.4-16.8c3-7,5.3-12.8,6.9-17.4l2.1-30.3c0.4-4.6,1-7.8,1.8-9.8c0.8-1.9,2.4-2.8,4.8-2.8c2,0,4,1.2,6,3.4
		c2,2.3,3,4.6,3,6.8C496.9,1134.4,495.8,1144.4,493.6,1159.8z"/>
	<path class="st3" d="M551.5,1269.9c-3.8,0-7.3-2.2-10.4-6.5c-3.1-4.3-5.6-9.1-7.5-14.4c-1.9-5.3-2.8-8.7-2.8-10.4
		c0-2.2,1-4.3,3.2-6.3c2.1-2,4.2-3,6.4-3c1.4,0,2.5,0.6,3.3,1.6c0.8,1.1,2,3,3.6,5.6c2,3.6,3.7,5.9,5.1,6.9c2.6,2,4.7,5.7,6.5,11.1
		c1.7,5.4,2.5,9,2.5,10.8C561.4,1268.4,558.1,1269.9,551.5,1269.9z"/>
	<path class="st3" d="M288.3,1503.5c-6.7,9.7-16.1,17.6-28.2,23.7c-12.1,6.1-25.9,9.2-41.2,9.2c-13,0-23.3-1.1-30.9-3.2
		c-7.6-2.1-11.4-5.1-11.4-8.8c0-2,1.4-5.3,4.4-10.1c2.9-4.7,5.1-7,6.8-7c2.4,0,3.6,0.5,3.6,1.5c0,0.6-0.4,1.3-1.1,2.1
		c-0.7,0.8-1,1.6-1,2.4c0,0.6,1.2,1.5,3.8,2.7c2.5,1.2,6.3,2.3,11.5,3.3c5.2,1,11.5,1.5,18.9,1.5c11.8,0,22.1-2.3,31.1-6.9
		c8.9-4.6,15.7-10.4,20.5-17.4c4.8-7,7.2-13.8,7.2-20.4c0-8.6-4.2-16-12.5-22.2c-8.3-6.2-21.7-12.1-40-17.7
		c-17.8-5.8-31.6-10.7-41.2-14.5c-9.7-3.9-17.6-8.7-23.6-14.4s-9-12.6-9-20.8c0-11,6.2-21.8,18.6-32.6
		c12.4-10.7,27.7-19.4,45.9-26.1c18.2-6.7,35.1-10,50.7-10c8,0,12.3,1.6,12.9,4.8c0.6,3.2,0.9,6.8,0.9,10.8c0,3-1.1,4.5-3.3,4.5
		c-1,0-2.2-0.3-3.5-1c-1.3-0.7-2.5-1.2-3.4-1.7c-1.2-0.4-2.6-0.8-4.2-1.2c-1.6-0.4-3.9-0.6-6.9-0.6c-10.4,0-22.9,2.7-37.5,8.1
		c-14.6,5.4-27.3,12.1-38,20.1c-10.7,8-16,15.7-16,23.1c0,6,2.4,11.2,7.4,15.6c4.9,4.4,11.4,8.2,19.6,11.2c8.2,3.1,19.8,7,34.8,11.5
		c22,6.4,38.2,13.6,48.7,21.6c10.5,8,15.8,17.8,15.8,29.4C298.3,1483.9,294.9,1493.8,288.3,1503.5z"/>
	<path class="st3" d="M512.2,1529.6c-1.6,1.7-3.7,2.5-6.3,2.5c-3.6,0-5.4-1.8-5.4-5.4c0-40.4-1.3-71.3-3.9-92.8
		c-2.6-21.5-7.1-32.2-13.5-32.2c-10.8,0-26.6,37.7-47.4,113.1v0.3c0,2.4-0.8,4.5-2.4,6.2c-1.6,1.7-3.7,2.5-6.3,2.5
		c-3.6,0-5.4-1.8-5.4-5.4c0-8,0.4-20.4,1.2-37.2c0.8-18.8,1.2-33.6,1.2-44.4c0-15-0.5-25.6-1.4-32c-0.9-6.3-2.8-9.4-5.8-9.4
		c-6.8,0-15.4,12.4-25.8,37.3c-10.4,24.9-21.3,54.3-32.7,88l-2.7,7.8c-0.8,2-2,3.7-3.5,5.1c-1.5,1.4-3.1,2.1-4.9,2.1
		c-2.4,0-4-0.2-4.8-0.6c-0.8-0.4-1.3-1.6-1.5-3.6c-1-9.8-1.8-22.9-2.4-39.3c-0.4-4.2-0.8-11.1-1.2-20.7c-2-33.8-3.8-56.6-5.4-68.5
		c-1.6-11.9-2.4-18.5-2.4-20c0-1.6,0.8-3.5,2.4-5.7c1.6-2.2,3.1-3.3,4.5-3.3c3.2,0,5.8,2.3,7.8,6.9c1,2.2,2.1,11,3.3,26.4
		c1.2,15.4,2.2,34.5,3,57.3l1.5,45.9c11-34,22.4-64.8,34.2-92.5c11.8-27.7,22.6-41.5,32.4-41.5c6.6,0,11.1,4.8,13.5,14.4
		c2.4,9.6,3.6,23.5,3.6,41.7c0,9.6-0.2,23.4-0.6,41.4l-0.3,13.8c8.2-28.6,16.3-52.6,24.5-72c8.1-19.4,16.2-29.1,24.5-29.1
		c20.6,0,30.9,45.6,30.9,136.8C514.6,1525.8,513.8,1527.9,512.2,1529.6z"/>
	<path class="st3" d="M559.9,1343.1c-3.4,0-6.9-1.4-10.4-4.2c-3.5-2.8-5.2-5.1-5.2-6.9c0-2.2,1.1-4.3,3.2-6.3c2.1-2,4.2-3,6.5-3
		c3,1,5.5,2.6,7.5,4.8c1.6,1.6,3.4,3.7,5.4,6.3c2,2.6,3,4.2,3,4.8C569.8,1341.6,566.5,1343.1,559.9,1343.1z M574.7,1532
		c-1.7,1.1-3.7,1.5-5.8,1.4c-2.8-0.2-4.9-4.7-6.2-13.5c-1.3-8.8-2.7-25.5-4-50.1c-0.8-16.2-1.5-32-2.1-47.5
		c-0.6-15.5-1-27.5-1.2-35.8c0-2.2,0.3-3.8,1-5c0.7-1.1,2-1.7,4-1.7c4.6,0,7.5,1.9,8.7,5.7c1.2,3.8,1.8,11.1,1.8,21.9l-0.3,35.4
		c0,20.2,0.6,36.4,1.8,48.6c0,0.6,0.9,7,2.7,19.2c1.4,8.4,2.1,14,2.1,16.8C577.3,1529.3,576.4,1530.9,574.7,1532z"/>
	<path class="st3" d="M640.6,1523.1c-2.6,1.2-5.5,1.8-8.7,1.8c-2.4,0-4.6-2.8-6.8-8.5c-2.1-5.7-3.1-14.3-3.1-26
		c0.2-22.6,0.5-49.9,1-81.9c0.5-32,0.9-56.1,1.3-72.3c0.2-5.8,1.2-11.2,3.2-16.2c1.9-5,5.2-7.5,10.1-7.5c1.6,0,2.6,0.9,3.1,2.6
		c0.5,1.7,0.8,4.9,0.8,9.8c0,0.2-0.1,0.9-0.1,1.9c-0.1,1.1-0.2,3.1-0.2,5.9c-3.6,52.6-5.4,103.9-5.4,153.9c0,6.4,1.4,13.2,4.3,20.4
		c2.9,7.2,4.4,11,4.4,11.4C644.5,1520.3,643.2,1521.9,640.6,1523.1z"/>
	<path class="st3" d="M790.9,1454.4c0,3.6-2.7,11.5-8,23.7c-5.3,12.2-13.3,23.5-24,33.9c-10.7,10.4-23.9,15.6-39.5,15.6
		c-12.8,0-23.5-4-32.1-12c-8.6-8-12.9-20.3-12.9-36.9c0-15.6,3.6-31,10.8-46.3c7.2-15.3,16.6-27.8,28.2-37.5
		c11.6-9.7,23.6-14.5,36-14.5c7.4,0,13.7,1.6,18.8,4.9c5.1,3.3,7.7,8.1,7.7,14.2c0,7-4,13.8-11.8,20.4c-7.9,6.6-18.2,12.4-30.8,17.4
		c-12.6,5-25.6,8.6-39,10.8c-2.4,9.2-3.6,18.2-3.6,27c0,11.6,2.7,20.6,8.2,27c5.5,6.4,13.4,9.6,23.5,9.6c15.4,0,27.9-5.5,37.5-16.5
		c9.6-11,17.6-23.4,24-37.2c0.4-0.8,1.1-2.3,2.1-4.6c1-2.3,1.9-3.5,2.7-3.5C790.2,1449.9,790.9,1451.4,790.9,1454.4z M757.4,1395.3
		c-3.3-1.8-7.2-2.7-11.5-2.7c-7.6,0-14.9,2.5-21.9,7.5c-7,5-12.9,11-17.5,18c-4.7,7-7.8,13.2-9.1,18.6c9.2-1,18.9-3.6,29.1-7.8
		c10.2-4.2,18.8-8.8,25.7-13.8c6.9-5,10.3-9.1,10.3-12.3C762.4,1399.6,760.7,1397.1,757.4,1395.3z"/>
	<path class="st3" d="M841,1533.9c-3.8,0-7.3-2.2-10.4-6.5c-3.1-4.3-5.6-9.1-7.5-14.4c-1.9-5.3-2.8-8.7-2.8-10.4
		c0-2.2,1-4.3,3.2-6.3c2.1-2,4.2-3,6.4-3c1.4,0,2.5,0.6,3.3,1.7c0.8,1.1,2,3,3.6,5.5c2,3.6,3.7,5.9,5.1,6.9c2.6,2,4.7,5.7,6.5,11.1
		c1.7,5.4,2.5,9,2.5,10.8C850.9,1532.4,847.6,1533.9,841,1533.9z"/>
</g>
<g>
	<path class="st3" d="M80,770.7c12.1,65.7,18.2,132.5,22.7,199c10.4,174.1,8.6,349-11.5,522.5c-2.5,20.7-5.4,41.6-9,62.2
		c0,0-1.1,6.2-1.1,6.2l-1.2,6.2h-3.4c-1.3-127-1.6-271.2-1.7-398.1c0.1-126.8,0.4-271.1,1.7-398.1C76.6,770.7,80,770.7,80,770.7
		L80,770.7z"/>
</g>
</svg>
